<svg width="256" height="256" viewBox="0 0 256 256" fill="none" xmlns="http://www.w3.org/2000/svg">
<g clip-path="url(#clip0)">
<path d="M236.438 73.344L213.207 57.855C208.873 44.204 199.8 32.553 187.627 25.0071C175.454 17.4612 160.983 14.518 146.829 16.7091C132.675 18.9003 119.772 26.0814 110.45 36.955C101.128 47.8286 96.003 61.6776 96 76V93.194L1.75298 211.002C0.811472 212.179 0.221482 213.597 0.0509576 215.095C-0.119567 216.592 0.136309 218.107 0.789116 219.465C1.44192 220.824 2.46511 221.97 3.74084 222.772C5.01658 223.574 6.49296 224 7.99998 224H112C139.573 223.969 166.008 213.002 185.505 193.505C205.002 174.008 215.969 147.573 216 120V100.281L236.438 86.656C237.534 85.9254 238.432 84.9356 239.053 83.7745C239.675 82.6134 240 81.3169 240 80C240 78.6831 239.675 77.3865 239.053 76.2254C238.432 75.0643 237.534 74.0746 236.438 73.344ZM110.146 141.122L70.146 189.122C69.4734 189.929 68.6483 190.596 67.718 191.084C66.7877 191.572 65.7704 191.873 64.7241 191.968C62.6109 192.16 60.508 191.504 58.878 190.146C57.248 188.788 56.2243 186.837 56.0323 184.724C55.8403 182.611 56.4955 180.508 57.854 178.878L97.854 130.878C98.5266 130.071 99.3516 129.404 100.282 128.916C101.212 128.428 102.23 128.127 103.276 128.032C104.322 127.937 105.377 128.049 106.38 128.362C107.383 128.674 108.315 129.181 109.122 129.854C109.929 130.527 110.596 131.352 111.084 132.282C111.572 133.212 111.873 134.23 111.968 135.276C112.063 136.322 111.951 137.377 111.638 138.38C111.326 139.383 110.819 140.315 110.146 141.122ZM164 80C161.627 80 159.307 79.2962 157.333 77.9776C155.36 76.659 153.822 74.7849 152.913 72.5922C152.005 70.3995 151.768 67.9867 152.231 65.6589C152.694 63.3311 153.836 61.1929 155.515 59.5147C157.193 57.8365 159.331 56.6936 161.659 56.2305C163.987 55.7675 166.399 56.0052 168.592 56.9134C170.785 57.8217 172.659 59.3597 173.978 61.3331C175.296 63.3065 176 65.6266 176 68C176 71.1826 174.736 74.2348 172.485 76.4853C170.235 78.7357 167.183 80 164 80Z" fill="#F8F8FF"/>
</g>
<defs>
<clipPath id="clip0">
<rect width="256" height="256" fill="white"/>
</clipPath>
</defs>
</svg>
