<svg width="256" height="256" viewBox="0 0 256 256" fill="none" xmlns="http://www.w3.org/2000/svg">
<g clip-path="url(#clip0)">
<path d="M176 68C176 70.3733 175.296 72.6934 173.978 74.6668C172.659 76.6402 170.785 78.1783 168.592 79.0865C166.399 79.9948 163.987 80.2324 161.659 79.7694C159.331 79.3064 157.193 78.1635 155.515 76.4853C153.836 74.807 152.694 72.6688 152.231 70.3411C151.768 68.0133 152.005 65.6005 152.913 63.4078C153.822 61.2151 155.36 59.3409 157.333 58.0223C159.307 56.7038 161.627 56 164 56C167.183 56 170.235 57.2643 172.485 59.5147C174.736 61.7651 176 64.8174 176 68ZM125.121 129.854C124.314 129.181 123.382 128.674 122.379 128.362C121.376 128.049 120.322 127.937 119.275 128.032C118.229 128.127 117.212 128.428 116.282 128.916C115.351 129.404 114.526 130.071 113.854 130.878L73.854 178.878C73.1813 179.685 72.6743 180.617 72.3617 181.62C72.0491 182.623 71.9371 183.677 72.0322 184.724C72.1272 185.77 72.4274 186.787 72.9156 187.718C73.4038 188.648 74.0704 189.473 74.8775 190.145C75.6845 190.818 76.6161 191.325 77.6191 191.638C78.6222 191.95 79.6769 192.062 80.7232 191.967C82.8363 191.775 84.7865 190.752 86.145 189.122L126.145 141.122C126.818 140.315 127.325 139.383 127.638 138.38C127.95 137.377 128.062 136.322 127.967 135.276C127.872 134.229 127.572 133.212 127.084 132.282C126.595 131.351 125.928 130.526 125.121 129.854V129.854ZM240 80C240 81.317 239.675 82.6136 239.053 83.7747C238.431 84.9358 237.533 85.9255 236.437 86.656L216 100.281V120C215.969 147.573 205.002 174.008 185.505 193.505C166.008 213.002 139.573 223.969 112 224H7.99998C6.49296 224 5.01658 223.574 3.74084 222.772C2.46511 221.97 1.44192 220.824 0.789116 219.465C0.136309 218.107 -0.119567 216.592 0.0509576 215.095C0.221482 213.597 0.811472 212.179 1.75298 211.002L96 93.194V76C96.003 61.6776 101.128 47.8286 110.45 36.955C119.772 26.0814 132.675 18.9003 146.829 16.7091C160.983 14.518 175.454 17.4612 187.627 25.0071C199.8 32.553 208.873 44.204 213.207 57.855L236.437 73.344C237.533 74.0744 238.431 75.0641 239.053 76.2252C239.675 77.3864 240 78.683 240 80V80ZM217.578 80L201.896 69.544C200.261 68.4541 199.084 66.8007 198.59 64.899C195.89 54.5436 189.508 45.5271 180.641 39.5367C171.773 33.5464 161.026 30.9926 150.411 32.3535C139.796 33.7143 130.041 38.8964 122.971 46.9301C115.901 54.9637 112.001 65.2984 112 76V96C112 97.8167 111.382 99.5793 110.247 100.998L24.645 208H112C135.331 207.974 157.699 198.694 174.196 182.196C190.694 165.699 199.974 143.331 200 120V96C200 94.683 200.325 93.3865 200.947 92.2254C201.568 91.0643 202.466 90.0745 203.562 89.344L217.578 80Z" fill="#F8F8FF"/>
</g>
<defs>
<clipPath id="clip0">
<rect width="256" height="256" fill="white"/>
</clipPath>
</defs>
</svg>
